<?xml version="1.0" encoding="utf-8"?><!-- Uploaded to: SVG Repo, www.svgrepo.com, Generator: SVG Repo Mixer Tools -->
<svg width="800px" height="800px" viewBox="0 0 64 64" fill="none" xmlns="http://www.w3.org/2000/svg">
<path d="M32.2937 23.9771L28.4644 25.6091L34.5986 39.9128L38.428 38.2808L32.2937 23.9771Z" fill="#2A2941"/>
<path d="M34.3451 40.5482L27.8221 25.3174L32.5638 23.2916L39.0867 38.5224L34.3451 40.5482ZM29.1267 25.8676L34.8719 39.2477L37.7571 38.0222L32.0119 24.6421L29.1267 25.8676Z" fill="#2A2941"/>
<path d="M27.2926 31.1645L23.4632 32.7965L27.8026 42.9149L31.632 41.2829L27.2926 31.1645Z" fill="#2A2941"/>
<path d="M27.5211 43.5744L22.7794 32.5452L27.5211 30.5194L32.2628 41.5486L27.5211 43.5744ZM24.1091 33.0704L28.0479 42.2739L30.9331 41.0484L26.9942 31.8449L24.1091 33.0704Z" fill="#2A2941"/>
<path fill-rule="evenodd" clip-rule="evenodd" d="M39.0867 15.1385L32.9652 11.187L31.6857 18.2897L32.9151 17.7645L41.1942 37.0468L46.0362 34.9961L37.7571 15.7137L39.0867 15.1385Z" fill="#2A2941"/>
<path d="M40.9182 37.6971L32.6391 18.4148L31.0084 19.115L32.5889 10.3617L40.1405 15.2385L38.4094 15.9638L46.6885 35.2462L40.9182 37.6971ZM33.191 17.1143L41.4701 36.3966L45.3839 34.721L37.1048 15.4386L38.0331 15.0385L33.3165 12.0123L32.338 17.4644L33.191 17.1143Z" fill="#2A2941"/>
<path fill-rule="evenodd" clip-rule="evenodd" d="M29.9797 49.9017L20.0197 54.0283L17.1847 47.2007C16.4823 45.475 17.2851 43.5243 19.0162 42.799L23.0052 41.1484C24.5858 40.4981 26.3921 41.2484 27.0444 42.824L29.9797 49.9017Z" fill="#2A2941"/>
<path d="M19.7437 54.6786L16.7081 47.4008C16.3067 46.4504 16.3067 45.4 16.7081 44.4497C17.1095 43.4993 17.837 42.749 18.8155 42.3489L22.8045 40.6982C24.6359 39.9479 26.7434 40.8233 27.496 42.624L30.632 50.1768L19.7437 54.6786ZM24.1844 41.4235C23.8582 41.4235 23.5321 41.4985 23.2059 41.6236L19.1918 43.2742C18.4893 43.5743 17.9374 44.1245 17.6363 44.8248C17.3353 45.5251 17.3353 46.3004 17.6363 47.0256L20.2706 53.3781L29.3023 49.6516L26.5426 43.0241C26.1663 42.0237 25.1879 41.4235 24.1844 41.4235Z" fill="#2A2941"/>
<path d="M19.543 43.0741C21.8847 43.0741 23.7829 41.1817 23.7829 38.8475C23.7829 36.5132 21.8847 34.6208 19.543 34.6208C17.2014 34.6208 15.3031 36.5132 15.3031 38.8475C15.3031 41.1817 17.2014 43.0741 19.543 43.0741Z" fill="#2A2941"/>
<path d="M19.543 34.6209C21.1989 34.6209 22.7794 35.5962 23.4568 37.2219C24.36 39.3727 23.3314 41.8486 21.1487 42.749C20.6218 42.974 20.0699 43.0741 19.518 43.0741C17.8621 43.0741 16.2816 42.0987 15.6042 40.4731C14.701 38.3223 15.7296 35.8463 17.9123 34.946C18.4642 34.7209 19.0162 34.6209 19.543 34.6209ZM19.543 33.6205C18.8406 33.6205 18.1883 33.7455 17.536 34.0206C16.2314 34.5458 15.2279 35.5712 14.701 36.8467C14.1742 38.1472 14.1742 39.5477 14.701 40.8482C15.5289 42.799 17.4105 44.0745 19.543 44.0745C20.2204 44.0745 20.8978 43.9494 21.5501 43.6743C22.8547 43.1491 23.8582 42.1237 24.3851 40.8482C24.9119 39.5477 24.9119 38.1472 24.3851 36.8467C23.5822 34.896 21.6755 33.6205 19.543 33.6205Z" fill="#2A2941"/>
<path fill-rule="evenodd" clip-rule="evenodd" d="M21.7759 39.7979C21.826 40.4481 21.3243 41.1234 20.6971 41.3734C20.0699 41.6235 19.1918 41.7236 18.4893 41.1734" fill="#2A2941"/>
<path d="M19.6936 41.9486C19.1667 41.9486 18.6649 41.7986 18.2384 41.4735C18.0628 41.3484 18.0377 41.1233 18.1632 40.9483C18.2886 40.7732 18.5144 40.7482 18.69 40.8732C19.3925 41.3984 20.2957 41.1233 20.5466 41.0233C21.0232 40.8232 21.3996 40.273 21.3745 39.8228C21.3494 39.6228 21.525 39.4477 21.7257 39.4227C21.9264 39.3977 22.102 39.5727 22.1271 39.7728C22.1773 40.5731 21.6254 41.3984 20.8225 41.6985C20.4462 41.8736 20.0699 41.9486 19.6936 41.9486Z" fill="#2A2941"/>
<path fill-rule="evenodd" clip-rule="evenodd" d="M38.3341 21.0157L15.9303 30.6444L24.3349 50.8771L46.3372 41.2735L38.3341 21.0157Z" fill="#2A2941"/>
<path fill-rule="evenodd" clip-rule="evenodd" d="M48.5199 37.4969L40.2157 17.1642L17.8622 26.7928L26.2667 47.0506L48.5199 37.4969Z" fill="white"/>
<path d="M25.8653 48.0509L16.8837 26.3927L40.6171 16.1638L49.4984 37.8721L25.8653 48.0509ZM18.8406 27.193L26.6681 46.0502L47.5415 37.0968L39.8143 18.1646L18.8406 27.193Z" fill="#2A2941"/>
<path d="M42.0367 21.6634L19.6187 31.0365L20.2013 32.4201L42.6193 23.047L42.0367 21.6634Z" fill="#2A2941"/>
<path fill-rule="evenodd" clip-rule="evenodd" d="M20.9731 29.819L22.654 29.0938L22.0518 27.6682L20.3709 28.3685L20.9731 29.819Z" fill="#2A2941"/>
<path fill-rule="evenodd" clip-rule="evenodd" d="M23.8833 28.6186L25.5642 27.9183L24.9621 26.4928L23.2561 27.1681L23.8833 28.6186Z" fill="#2A2941"/>
<path fill-rule="evenodd" clip-rule="evenodd" d="M26.7684 27.4182L28.4493 26.6929L27.8472 25.2673L26.1663 25.9676L26.7684 27.4182Z" fill="#2A2941"/>
<path d="M35.0001 22.8977L31.1707 24.5297L37.305 38.8333L41.1344 37.2013L35.0001 22.8977Z" fill="#F00010"/>
<path d="M37.0295 39.4978L30.5066 24.267L35.2483 22.2412L41.7712 37.472L37.0295 39.4978ZM31.8363 24.7922L37.5815 38.1723L40.4666 36.9468L34.7214 23.5667L31.8363 24.7922Z" fill="#2A2941"/>
<path d="M29.9759 30.0948L26.1465 31.7268L30.4858 41.8452L34.3152 40.2132L29.9759 30.0948Z" fill="#72A3FB"/>
<path d="M30.2306 42.4989L25.489 31.4697L30.2306 29.444L34.9723 40.4732L30.2306 42.4989ZM26.8186 31.9949L30.7575 41.1984L33.6426 39.973L29.7038 30.7695L26.8186 31.9949Z" fill="#2A2941"/>
<path fill-rule="evenodd" clip-rule="evenodd" d="M41.7712 14.0631L35.6497 10.1116L34.3702 17.2393L35.6246 16.6891L43.8786 35.9714L48.7206 33.9206L40.4666 14.6383L41.7712 14.0631Z" fill="#32EDBB"/>
<path d="M43.6277 36.6216L35.3486 17.3393L33.7179 18.0396L35.2985 9.28625L42.85 14.1631L41.1189 14.8884L49.398 34.1707L43.6277 36.6216ZM35.8755 16.0388L44.1546 35.3212L48.0683 33.6455L39.7892 14.3632L40.7175 13.963L36.026 10.9369L35.0476 16.389L35.8755 16.0388Z" fill="#2A2941"/>
<path fill-rule="evenodd" clip-rule="evenodd" d="M30.6069 48.5012L20.6469 52.6027L17.812 45.7751C17.1095 44.0495 17.9123 42.0987 19.6434 41.3735L23.6324 39.7228C25.213 39.0726 27.0193 39.8229 27.6716 41.3985L30.6069 48.5012Z" fill="#A694FE"/>
<path d="M20.371 53.253L17.3353 45.9753C16.9339 45.0249 16.9339 43.9745 17.3353 43.0241C17.7367 42.0738 18.4643 41.3235 19.4427 40.9233L23.4317 39.2727C25.2632 38.5224 27.3706 39.3978 28.1232 41.2234L31.2593 48.7763L20.371 53.253ZM24.8116 39.998C24.4854 39.998 24.1342 40.073 23.8081 40.1981L19.819 41.8487C19.1166 42.1488 18.5646 42.699 18.2636 43.3993C17.9625 44.0995 17.9625 44.8748 18.2636 45.6001L20.8978 51.9525L29.9296 48.2261L27.1699 41.5986C26.8939 40.9733 26.4172 40.4732 25.7649 40.1981C25.4639 40.073 25.1377 39.998 24.8116 39.998Z" fill="#2A2941"/>
<path d="M20.1703 41.6736C22.5119 41.6736 24.4102 39.7812 24.4102 37.4469C24.4102 35.1127 22.5119 33.2203 20.1703 33.2203C17.8286 33.2203 15.9304 35.1127 15.9304 37.4469C15.9304 39.7812 17.8286 41.6736 20.1703 41.6736Z" fill="#FEC34E"/>
<path d="M20.1703 33.2204C21.8261 33.2204 23.4066 34.1957 24.084 35.8213C24.9872 37.9722 23.9586 40.4481 21.7759 41.3484C21.249 41.5735 20.6971 41.6736 20.1452 41.6736C18.4893 41.6736 16.9088 40.6982 16.2314 39.0726C15.3282 36.9218 16.3568 34.4458 18.5395 33.5455C19.0915 33.3204 19.6434 33.2204 20.1703 33.2204ZM20.1703 32.22C19.4678 32.22 18.8155 32.345 18.1632 32.6201C15.5038 33.7205 14.2244 36.7717 15.3282 39.4477C16.1561 41.3985 18.0378 42.6739 20.1703 42.6739C20.8476 42.6739 21.525 42.5489 22.1773 42.2738C24.8617 41.1734 26.1162 38.0972 25.0123 35.4462C24.2095 33.4704 22.3028 32.22 20.1703 32.22Z" fill="#2A2941"/>
<path d="M20.3208 40.5231C19.7939 40.5231 19.2922 40.373 18.8657 40.0479C18.6901 39.9229 18.665 39.6978 18.7904 39.5227C18.9158 39.3477 19.1416 39.3226 19.3173 39.4477C20.0197 39.9729 20.9229 39.6978 21.1738 39.5978C21.6505 39.3977 22.0268 38.8475 22.0017 38.3973C21.9766 38.1972 22.1522 38.0221 22.3529 37.9971C22.5536 37.9721 22.7293 38.1472 22.7543 38.3473C22.8045 39.1476 22.2526 39.9729 21.4498 40.273C21.0734 40.4481 20.6971 40.5231 20.3208 40.5231Z" fill="#2A2941"/>
</svg>